<svg xmlns="http://www.w3.org/2000/svg" viewBox="0 0 32 32" id="medium"><path d="M27 23.09V13.5a1 1 0 0 0-2 0v10a1 1 0 0 0 .29.71l.3.29h-5.18l.3-.29a1 1 0 0 0 .29-.71v-10a1 1 0 0 0-1.92-.38l-4.6 11-6.57-14.04a1.08 1.08 0 0 0-.11-.18L6 7.5h4.38l4.73 9.5a1 1 0 0 0 .93.55 1 1 0 0 0 .89-.63l3.75-9.42h4.91l-.3.29a1 1 0 0 0-.29.71v1a1 1 0 0 0 2 0v-.59l1.71-1.7a1 1 0 0 0 .21-1.09A1 1 0 0 0 28 5.5h-8a1 1 0 0 0-.93.63l-3.17 7.93-4-8a1 1 0 0 0-.9-.56H4a1 1 0 0 0-.89.55 1 1 0 0 0 .09 1L6.14 11l.36.77v8.73l-3.3 4.4a1 1 0 0 0-.09 1.1 1 1 0 0 0 .89.5h7a1 1 0 0 0 .89-.55 1 1 0 0 0-.09-1.05l-3.3-4.4v-4.42l4.59 9.84a1 1 0 0 0 .91.58h1a1 1 0 0 0 .92-.62L19 18.5v4.59l-1.71 1.7a1 1 0 0 0-.21 1.09 1 1 0 0 0 .92.62h10a1 1 0 0 0 .92-.62 1 1 0 0 0-.21-1.09ZM6 24.5l1.5-2 1.5 2Z" data-name="medium news article m"></path></svg>